<svg xmlns="http://www.w3.org/2000/svg" viewBox="0 0 512 512" fill="none">
  <g stroke="#FFFFFF" stroke-width="1.2" stroke-linecap="round" stroke-linejoin="round">

    <!-- HEAD 1 (leftmost half-profile — hair/back sweep) -->
    <path d="
      M 152,370
      C 138,328 120,270 118,218
      C 116,170 128,128 152,95
      C 174,65 200,50 234,42
    "/>

    <!-- HEAD 2 (middle half-profile — face with nose, lips, chin) -->
    <path d="
      M 210,72
      C 206,86 200,104 196,120
      C 192,136 188,148 184,160
      C 178,176 172,192 164,210
      C 156,228 148,244 140,258
      C 136,266 132,270 128,272
      C 122,276 118,282 120,290
      C 122,296 128,302 134,306
      C 138,310 138,316 136,324
      C 132,336 128,348 126,360
      C 124,372 128,384 136,392
      C 144,400 156,402 168,396
      C 178,390 186,378 194,364
      C 200,352 204,338 210,324
    "/>

    <!-- HEAD 3 (full head — complete outline with neural mesh) -->
    <path d="
      M 270,42
      C 250,38 230,48 216,66
      C 202,84 194,106 192,130
      C 190,150 192,164 190,178
      C 188,194 182,210 174,226
      C 166,244 158,260 154,278
      C 150,294 150,306 156,316
      C 162,326 170,330 178,332
      C 184,334 186,342 182,354
      C 178,366 174,378 172,390
      C 168,404 170,418 180,428
      C 190,438 204,440 216,434
      C 228,428 238,416 248,400
      C 260,382 274,362 290,342
      C 308,320 328,300 350,284
      C 372,268 390,248 402,224
      C 414,200 420,176 420,152
      C 420,128 414,106 402,88
      C 388,68 370,54 350,46
      C 332,38 312,36 294,38
      C 282,38 276,40 270,42
    Z"/>

    <!-- NEURAL MESH — organic triangulation with node points -->
    <!-- Layer 1: Crown -->
    <path d="
      M 270,42 L 248,82
      M 270,42 L 298,72
      M 294,38 L 298,72
      M 294,38 L 340,52
      M 350,46 L 340,52
      M 402,88 L 378,70
      M 350,46 L 378,70
    "/>
    <path d="M 248,82 L 298,72 M 298,72 L 340,52 M 340,52 L 378,70"/>

    <!-- Layer 2 -->
    <path d="
      M 216,66 L 204,118
      M 248,82 L 236,126
      M 298,72 L 292,122
      M 340,52 L 348,112
      M 378,70 L 386,116
      M 402,88 L 386,116
    "/>
    <path d="M 204,118 L 236,126 M 236,126 L 292,122 M 292,122 L 348,112 M 348,112 L 386,116"/>

    <!-- Layer 3 -->
    <path d="
      M 204,118 L 194,168
      M 236,126 L 228,172
      M 292,122 L 280,170
      M 348,112 L 356,164
      M 386,116 L 396,160
      M 420,152 L 396,160
    "/>
    <path d="M 194,168 L 228,172 M 228,172 L 280,170 M 280,170 L 356,164 M 356,164 L 396,160"/>

    <!-- Layer 4 -->
    <path d="
      M 194,168 L 180,218
      M 228,172 L 220,220
      M 280,170 L 270,218
      M 356,164 L 344,214
      M 396,160 L 384,212
    "/>
    <path d="M 180,218 L 220,220 M 220,220 L 270,218 M 270,218 L 344,214 M 344,214 L 384,212"/>

    <!-- Layer 5 -->
    <path d="
      M 180,218 L 162,268
      M 220,220 L 212,268
      M 270,218 L 260,266
      M 344,214 L 328,262
      M 384,212 L 368,258
    "/>
    <path d="M 162,268 L 212,268 M 212,268 L 260,266 M 260,266 L 328,262 M 328,262 L 368,258"/>

    <!-- Layer 6 -->
    <path d="
      M 162,268 L 160,312
      M 212,268 L 206,310
      M 260,266 L 256,308
      M 328,262 L 312,304
      M 368,258 L 348,296
    "/>
    <path d="M 160,312 L 206,310 M 206,310 L 256,308 M 256,308 L 312,304 M 312,304 L 348,296"/>

    <!-- Layer 7 -->
    <path d="
      M 160,312 L 174,350
      M 206,310 L 214,350
      M 256,308 L 260,346
      M 312,304 L 298,340
      M 348,296 L 328,330
    "/>
    <path d="M 174,350 L 214,350 M 214,350 L 260,346 M 260,346 L 298,340 M 298,340 L 328,330"/>

    <!-- Layer 8 -->
    <path d="
      M 174,350 L 178,390
      M 214,350 L 232,384
      M 260,346 L 268,380
      M 298,340 L 292,370
    "/>
    <path d="M 178,390 L 232,384 M 232,384 L 268,380 M 268,380 L 292,370"/>

    <!-- Layer 9 (bottom) -->
    <path d="
      M 178,390 L 190,420
      M 232,384 L 250,406
      M 268,380 L 272,400
    "/>
    <path d="M 190,420 L 250,406 M 250,406 L 272,400"/>

    <!-- Diagonal cross-connections (creates neural network triangulation) -->
    <path d="
      M 248,82 L 292,122
      M 298,72 L 348,112
      M 236,126 L 280,170
      M 292,122 L 356,164
      M 228,172 L 270,218
      M 280,170 L 344,214
      M 220,220 L 260,266
      M 270,218 L 328,262
      M 212,268 L 256,308
      M 260,266 L 312,304
      M 206,310 L 256,308
      M 256,308 L 298,340
      M 214,350 L 260,346
      M 260,346 L 292,370
      M 232,384 L 268,380
    "/>

    <!-- NEURAL NODES — small circles at mesh intersections -->
    <circle cx="270" cy="42" r="2.5" fill="#FFFFFF" stroke="none"/>
    <circle cx="298" cy="72" r="2" fill="#FFFFFF" stroke="none"/>
    <circle cx="248" cy="82" r="2" fill="#FFFFFF" stroke="none"/>
    <circle cx="340" cy="52" r="2" fill="#FFFFFF" stroke="none"/>
    <circle cx="378" cy="70" r="2" fill="#FFFFFF" stroke="none"/>

    <circle cx="204" cy="118" r="2" fill="#FFFFFF" stroke="none"/>
    <circle cx="236" cy="126" r="2.5" fill="#FFFFFF" stroke="none"/>
    <circle cx="292" cy="122" r="2.5" fill="#FFFFFF" stroke="none"/>
    <circle cx="348" cy="112" r="2" fill="#FFFFFF" stroke="none"/>
    <circle cx="386" cy="116" r="2" fill="#FFFFFF" stroke="none"/>

    <circle cx="194" cy="168" r="2" fill="#FFFFFF" stroke="none"/>
    <circle cx="228" cy="172" r="2.5" fill="#FFFFFF" stroke="none"/>
    <circle cx="280" cy="170" r="3" fill="#FFFFFF" stroke="none"/>
    <circle cx="356" cy="164" r="2.5" fill="#FFFFFF" stroke="none"/>
    <circle cx="396" cy="160" r="2" fill="#FFFFFF" stroke="none"/>

    <circle cx="180" cy="218" r="2" fill="#FFFFFF" stroke="none"/>
    <circle cx="220" cy="220" r="2.5" fill="#FFFFFF" stroke="none"/>
    <circle cx="270" cy="218" r="3" fill="#FFFFFF" stroke="none"/>
    <circle cx="344" cy="214" r="2.5" fill="#FFFFFF" stroke="none"/>
    <circle cx="384" cy="212" r="2" fill="#FFFFFF" stroke="none"/>

    <circle cx="162" cy="268" r="2" fill="#FFFFFF" stroke="none"/>
    <circle cx="212" cy="268" r="2.5" fill="#FFFFFF" stroke="none"/>
    <circle cx="260" cy="266" r="3" fill="#FFFFFF" stroke="none"/>
    <circle cx="328" cy="262" r="2.5" fill="#FFFFFF" stroke="none"/>
    <circle cx="368" cy="258" r="2" fill="#FFFFFF" stroke="none"/>

    <circle cx="160" cy="312" r="2" fill="#FFFFFF" stroke="none"/>
    <circle cx="206" cy="310" r="2.5" fill="#FFFFFF" stroke="none"/>
    <circle cx="256" cy="308" r="2.5" fill="#FFFFFF" stroke="none"/>
    <circle cx="312" cy="304" r="2" fill="#FFFFFF" stroke="none"/>
    <circle cx="348" cy="296" r="2" fill="#FFFFFF" stroke="none"/>

    <circle cx="174" cy="350" r="2" fill="#FFFFFF" stroke="none"/>
    <circle cx="214" cy="350" r="2.5" fill="#FFFFFF" stroke="none"/>
    <circle cx="260" cy="346" r="2.5" fill="#FFFFFF" stroke="none"/>
    <circle cx="298" cy="340" r="2" fill="#FFFFFF" stroke="none"/>

    <circle cx="178" cy="390" r="2" fill="#FFFFFF" stroke="none"/>
    <circle cx="232" cy="384" r="2.5" fill="#FFFFFF" stroke="none"/>
    <circle cx="268" cy="380" r="2" fill="#FFFFFF" stroke="none"/>

    <circle cx="190" cy="420" r="2" fill="#FFFFFF" stroke="none"/>
    <circle cx="250" cy="406" r="2" fill="#FFFFFF" stroke="none"/>

    <!-- 4-point star -->
    <path d="M 452,440 L 455,426 L 458,440 L 472,443 L 458,446 L 455,460 L 452,446 L 438,443 Z"
          fill="#888888" stroke="none"/>
  </g>
</svg>
